<?xml version="1.0" standalone="no"?>
<svg width="900" height="900" xmlns="http://www.w3.org/2000/svg" version="1.1">
    <defs>
        <radialGradient id="RadialGradient1" cx="0.5" cy="0.5" r="0.5" fx="0.5" fy="0.5">
            <stop offset="0%" stop-color="rgb(255,150,90)"/>
            <stop offset="100%" stop-color="rgb(200,20,80)"/>
        </radialGradient>       
    </defs>
    <line x1="10" x2="85" y1="120" y2="150" stroke-width="10" stroke-linecap="round" stroke="green" fill="transparent" />
    <rect x="100" y="100" width="80" height="50" fill="rgb(255,55,222)" fill-opacity="0.3"  stroke-width="10" stroke="rgb(150,22,44)"  />
    <circle cx="250" cy="200" r="40" fill="rgb(255,180,0)" stroke-width="3" stroke="rgb(243,167,47)" id="cir1"/>
    <path d="M208 185 c0 -10 35 -10 35 0 c0 0 -1 3 -5 2 c-5 -3 -20 -5 -25 0 C208 190 208 185 208 185" fill="white" stroke-width="1" stroke="rgb(252,188,100)"/>
    <circle cx="213" cy="183" r="3" fill="rgb(137,82,53)" />
    <path d="M258 185 c0 -10 35 -10 35 0 c0 0 -1 3 -5 2 c-5 -3 -20 -5 -25 0 C258 190 258 185 258 185" fill="white" stroke-width="1" stroke="rgb(252,188,100)"/>
    <circle cx="263" cy="183" r="3" fill="rgb(137,82,53)" />
    <ellipse  cx="225" cy="192" rx="12" ry="3" fill="rgb(247,121,132)"/>
    <ellipse  cx="275" cy="192" rx="12" ry="3" fill="rgb(247,121,132)"/>
    <path d="M215 205 A36 36 0 0 0 285 205 A38 38 0 0 1 215 205" fill="rgb(136,83,49)"/>
    <path d="M213 170 a15 15 0 0 1 28 3 a17 17 0 0 0 -28 -3" fill="rgb(136,83,49)"/>
    <path d="M287 170 a15 15 0 0 0 -28 3 a17 17 0 0 1 28 -3" fill="rgb(136,83,49)"/>
    <text x="350" y="200" style="font-size:2em;font-weight:bold;fill:transparent;stroke-width:1px;stroke:blue;">
        Hello World!!!!!
    </text>
    <path d="M650 100 a12 25 0 1 1 20 0 a12 25 60 1 1 10 17.32 a12 25 120 1 1 -10 17.32 a12 25 180 1 1 -20 0 a12 25 240 1 1 -10 -17.32 a12 25 300 1 1 10 -17.32" fill="url(#RadialGradient1)" />
    <path d="M750 300 C780 300 780 200 780 200 L790 230 L800 200 C800 200 800 300 830 300" fill="rgb(120,70,20)"/>
    <path d="M779 230 Q700 210 750 100 Q 735 90 790 115 Q845 90 830 100 Q 880 210 801 230 L800 200 L790 230 L780 200 Z" fill="green"/>

    <line x1="50" x2="810" y1="750" y2="750" stroke-width="2" stroke="black"/>
    <line x1="55" x2="55" y1="755" y2="430" stroke-width="2" stroke="black"/>
    <path d="M115 750 v5" stroke-width="2" stroke="black"/>
    <path d="M175 750 v5" stroke-width="2" stroke="black"/>
    <path d="M235 750 v5" stroke-width="2" stroke="black"/>
    <path d="M295 750 v5" stroke-width="2" stroke="black"/>
    <path d="M355 750 v5" stroke-width="2" stroke="black"/>
    <path d="M415 750 v5" stroke-width="2" stroke="black"/>
    <path d="M475 750 v5" stroke-width="2" stroke="black"/>
    <path d="M535 750 v5" stroke-width="2" stroke="black"/>
    <path d="M595 750 v5" stroke-width="2" stroke="black"/>
    <path d="M655 750 v5" stroke-width="2" stroke="black"/>
    <path d="M715 750 v5" stroke-width="2" stroke="black"/>
    <path d="M775 750 v5" stroke-width="2" stroke="black"/>    
    <path d="M55 700 h-5" stroke-width="2" stroke="black"/>
    <path d="M55 650 h-5" stroke-width="2" stroke="black"/>
    <path d="M55 600 h-5" stroke-width="2" stroke="black"/>
    <path d="M55 550 h-5" stroke-width="2" stroke="black"/>
    <path d="M55 500 h-5" stroke-width="2" stroke="black"/>
    <path d="M55 450 h-5" stroke-width="2" stroke="black"/>
    <path d="M55 700 h755" stroke-width="2" stroke="rgb(220,220,220)"/>
    <path d="M55 650 h755" stroke-width="2" stroke="rgb(220,220,220)"/>
    <path d="M55 600 h755" stroke-width="2" stroke="rgb(220,220,220)"/>
    <path d="M55 550 h755" stroke-width="2" stroke="rgb(220,220,220)"/>
    <path d="M55 500 h755" stroke-width="2" stroke="rgb(220,220,220)"/>
    <path d="M55 450 h755" stroke-width="2" stroke="rgb(220,220,220)"/>
    <path d="M85 750 v-120" stroke-width="30" stroke="#60acfc"/>
    <path d="M145 750 v-100" stroke-width="30" stroke="#60acfc"/>
    <path d="M205 750 v-140" stroke-width="30" stroke="#60acfc"/>
    <path d="M265 750 v-160" stroke-width="30" stroke="#60acfc"/>
    <path d="M325 750 v-180" stroke-width="30" stroke="#60acfc"/>
    <path d="M385 750 v-185" stroke-width="30" stroke="#60acfc"/>
    <path d="M445 750 v-190" stroke-width="30" stroke="#60acfc"/>
    <path d="M505 750 v-210" stroke-width="30" stroke="#60acfc"/>
    <path d="M565 750 v-230" stroke-width="30" stroke="#60acfc"/>
    <path d="M625 750 v-245" stroke-width="30" stroke="#60acfc"/>
    <path d="M685 750 v-255" stroke-width="30" stroke="#60acfc"/>
    <path d="M745 750 v-270" stroke-width="30" stroke="#60acfc"/>
    <line />
</svg>